<?xml version="1.0" standalone="no"?><!DOCTYPE svg PUBLIC "-//W3C//DTD SVG 1.1//EN" "http://www.w3.org/Graphics/SVG/1.1/DTD/svg11.dtd"><svg t="1568183601095" class="icon" viewBox="0 0 1024 1024" version="1.1" xmlns="http://www.w3.org/2000/svg" p-id="8875" xmlns:xlink="http://www.w3.org/1999/xlink" width="200" height="200"><defs><style type="text/css"></style></defs><path d="M518.678261 1012.869565c-55.652174 0-271.582609-93.495652-338.365218-258.226087C120.208696 605.495652 122.434783 398.469565 124.66087 262.678261V202.573913L133.565217 200.347826c111.304348-13.356522 238.191304-75.686957 378.434783-186.991304l6.678261-4.452174 6.678261 4.452174c158.052174 111.304348 284.93913 180.313043 371.756521 207.026087l6.678261 2.226087v8.904347c0 24.486957 0 51.2 2.226087 80.139131 4.452174 124.66087 8.904348 293.843478-44.521739 427.408696-64.556522 160.278261-287.165217 273.808696-342.817391 273.808695zM146.921739 220.382609v42.295652c-4.452174 135.791304-6.678261 340.591304 53.426087 485.286956 64.556522 155.826087 271.582609 242.643478 318.330435 242.643479 42.295652 0 260.452174-104.626087 322.782609-260.452174 53.426087-129.113043 46.747826-296.069565 42.295652-418.504348 0-26.713043-2.226087-51.2-2.226087-71.234783-89.043478-28.93913-211.478261-97.947826-362.852174-204.8C382.886957 142.469565 258.226087 204.8 146.921739 220.382609z" fill="#46AAFF" p-id="8876"></path><path d="M449.669565 658.921739H289.391304v-44.521739h135.791305L567.652174 378.434783h117.982609v44.521739h-91.269566z" fill="#46AAFF" p-id="8877"></path><path d="M685.634783 658.921739h-117.982609L425.182609 422.956522H289.391304v-44.521739h160.278261l144.695652 235.965217h91.269566zM678.956522 480.834783l-35.617392-26.713044 40.069566-53.426087-40.069566-53.426087 35.617392-26.713043 57.878261 80.13913z" fill="#46AAFF" p-id="8878"></path><path d="M678.956522 716.8L643.33913 690.086957l40.069566-53.426087-40.069566-53.426087 35.617392-26.713044 57.878261 80.139131z" fill="#46AAFF" p-id="8879"></path></svg>