<?xml version="1.0" standalone="no"?><!DOCTYPE svg PUBLIC "-//W3C//DTD SVG 1.1//EN" "http://www.w3.org/Graphics/SVG/1.1/DTD/svg11.dtd"><svg t="1568183511359" class="icon" viewBox="0 0 1024 1024" version="1.1" xmlns="http://www.w3.org/2000/svg" p-id="7449" xmlns:xlink="http://www.w3.org/1999/xlink" width="200" height="200"><defs><style type="text/css"></style></defs><path d="M253.866667 520.32L50.56 871.893333A58.666667 58.666667 0 0 0 101.333333 960h406.613334a58.666667 58.666667 0 0 0 50.773333-88.106667l-203.306667-351.573333a58.666667 58.666667 0 0 0-101.546666 0z" fill="#27AE3A" opacity=".5" p-id="7450"></path><path d="M512 917.333333a405.333333 405.333333 0 1 1 405.333333-405.333333 405.333333 405.333333 0 0 1-405.333333 405.333333z m0-762.88A357.546667 357.546667 0 1 0 869.546667 512 357.973333 357.973333 0 0 0 512 154.453333z" fill="#27AE3A" p-id="7451"></path><path d="M512 354.133333a904.106667 904.106667 0 0 1-298.666667-49.066666l16-45.013334A859.52 859.52 0 0 0 512 306.56a848.853333 848.853333 0 0 0 300.373333-52.906667l17.066667 44.586667A900.693333 900.693333 0 0 1 512 354.133333zM794.666667 782.08a898.986667 898.986667 0 0 0-565.333334 0L213.333333 737.066667a950.186667 950.186667 0 0 1 597.333334 0z" fill="#27AE3A" p-id="7452"></path><path d="M512 917.333333c-115.2 0-205.44-178.133333-205.44-405.333333S396.8 106.666667 512 106.666667s205.44 178.133333 205.44 405.333333S627.2 917.333333 512 917.333333z m0-762.88c-76.16 0-157.866667 144.213333-157.866667 357.546667s81.706667 357.546667 157.866667 357.546667S669.866667 725.333333 669.866667 512 588.16 154.453333 512 154.453333z" fill="#27AE3A" p-id="7453"></path><path d="M130.56 488.106667h762.88v47.786666H130.56z" fill="#27AE3A" p-id="7454"></path><path d="M488.106667 130.56h47.786666v762.88h-47.786666z" fill="#27AE3A" p-id="7455"></path></svg>