<?xml version="1.0" standalone="no"?><!DOCTYPE svg PUBLIC "-//W3C//DTD SVG 1.1//EN" "http://www.w3.org/Graphics/SVG/1.1/DTD/svg11.dtd"><svg t="1568092856328" class="icon" viewBox="0 0 1024 1024" version="1.1" xmlns="http://www.w3.org/2000/svg" p-id="2233" xmlns:xlink="http://www.w3.org/1999/xlink" width="200" height="200"><defs><style type="text/css"></style></defs><path d="M632.0128 167.9104a6.5024 6.5024 0 0 1-3.2-0.8448L512 99.6352l-116.8128 67.4304a6.5024 6.5024 0 0 1-8.7552-2.3552 6.4768 6.4768 0 0 1 2.3552-8.7552l120.0128-69.2736a6.3488 6.3488 0 0 1 6.4 0l120.0128 69.2736c3.0464 1.7664 4.096 5.7088 2.3552 8.7552a6.4512 6.4512 0 0 1-5.5552 3.2zM512 938.1632a6.5024 6.5024 0 0 1-3.2-0.8448l-120.0128-69.2736a6.4512 6.4512 0 0 1-2.3552-8.7552c1.792-3.072 5.7344-4.096 8.7552-2.3552L512 924.3648l116.8128-67.4304a6.4512 6.4512 0 0 1 8.7552 2.3552 6.4768 6.4768 0 0 1-2.3552 8.7552l-120.0128 69.2736a6.2464 6.2464 0 0 1-3.2 0.8448zM148.4544 447.104a6.4 6.4 0 0 1-6.4-6.4v-138.5984c0-2.2784 1.2288-4.4032 3.2-5.5552l120.0128-69.2992a6.4768 6.4768 0 0 1 8.7552 2.3552 6.4768 6.4768 0 0 1-2.3552 8.7552l-116.8128 67.456v134.912a6.4 6.4 0 0 1-6.4 6.3744zM755.5328 797.5936a6.4512 6.4512 0 0 1-5.5552-3.2 6.4768 6.4768 0 0 1 2.3552-8.7552l116.8128-67.456v-134.912a6.4 6.4 0 0 1 12.8 0v138.5984a6.4512 6.4512 0 0 1-3.2 5.5552l-120.0128 69.2992a6.0416 6.0416 0 0 1-3.2 0.8704zM268.4672 797.5936a6.5024 6.5024 0 0 1-3.2-0.8448l-120.0128-69.2992a6.4512 6.4512 0 0 1-3.2-5.5552v-138.5984a6.4 6.4 0 0 1 12.8 0v134.912l116.8128 67.456c3.0464 1.7664 4.096 5.7088 2.3552 8.7552a6.4768 6.4768 0 0 1-5.5552 3.1744zM875.5456 447.104a6.4 6.4 0 0 1-6.4-6.4v-134.912L752.3328 238.336a6.4512 6.4512 0 0 1-2.3552-8.7552 6.4512 6.4512 0 0 1 8.7552-2.3552l120.0128 69.2992a6.4512 6.4512 0 0 1 3.2 5.5552v138.5984a6.4 6.4 0 0 1-6.4 6.4256z" fill="#00CFFF" p-id="2234"></path><path d="M396.032 583.1424l-0.256 94.336a3.4304 3.4304 0 0 1-5.1712 2.9696l-82.1248-47.4112a3.3792 3.3792 0 0 1-1.7152-2.9952l0.256-94.336c0-2.6624 2.8928-4.3008 5.1712-2.9696l82.1248 47.4112a3.4304 3.4304 0 0 1 1.7152 2.9952z" fill="#008CFF" p-id="2235"></path><path d="M396.3904 460.416l-0.256 94.336a3.4304 3.4304 0 0 1-5.1712 2.9696l-82.1248-47.4112a3.3792 3.3792 0 0 1-1.7152-2.9952l0.256-94.336c0-2.6624 2.8928-4.3008 5.1712-2.9696l82.1248 47.4112a3.4304 3.4304 0 0 1 1.7152 2.9952z" fill="#008CFF" p-id="2236"></path><path d="M502.8608 644.8128l-0.256 94.336a3.4304 3.4304 0 0 1-5.1712 2.9696l-82.1248-47.4112a3.3792 3.3792 0 0 1-1.7152-2.9952l0.256-94.336c0-2.6624 2.8928-4.3008 5.1712-2.9696l82.1248 47.4112a3.4816 3.4816 0 0 1 1.7152 2.9952z" fill="#008CFF" p-id="2237"></path><path d="M627.968 583.1424l0.256 94.336c0 2.6624 2.8928 4.3008 5.1712 2.9696l82.1248-47.4112a3.3792 3.3792 0 0 0 1.7152-2.9952l-0.256-94.336a3.4304 3.4304 0 0 0-5.1712-2.9696l-82.1248 47.4112a3.4304 3.4304 0 0 0-1.7152 2.9952z" fill="#008CFF" p-id="2238"></path><path d="M627.6096 460.416l0.256 94.336c0 2.6624 2.8928 4.3008 5.1712 2.9696l82.1248-47.4112a3.3792 3.3792 0 0 0 1.7152-2.9952l-0.256-94.336a3.4304 3.4304 0 0 0-5.1712-2.9696l-82.1248 47.4112a3.4304 3.4304 0 0 0-1.7152 2.9952z" fill="#1AC678" p-id="2239"></path><path d="M521.1392 644.8128l0.256 94.336c0 2.6624 2.8928 4.3008 5.1712 2.9696l82.1248-47.4112a3.3792 3.3792 0 0 0 1.7152-2.9952l-0.256-94.336a3.4304 3.4304 0 0 0-5.1712-2.9696l-82.1248 47.4112a3.4816 3.4816 0 0 0-1.7152 2.9952z" fill="#008CFF" p-id="2240"></path><path d="M514.2016 380.8768l81.5616-47.4112a3.456 3.456 0 0 0 0-5.9648l-82.1248-47.4112a3.4816 3.4816 0 0 0-3.456 0l-81.5616 47.4112a3.456 3.456 0 0 0 0 5.9648l82.1248 47.4112a3.328 3.328 0 0 0 3.456 0z" fill="#008CFF" p-id="2241"></path><path d="M408.064 442.5728l81.5616-47.4112a3.456 3.456 0 0 0 0-5.9648l-82.1248-47.4112a3.4816 3.4816 0 0 0-3.456 0l-81.5616 47.4112a3.456 3.456 0 0 0 0 5.9648l82.1248 47.4112a3.4816 3.4816 0 0 0 3.456 0z" fill="#008CFF" p-id="2242"></path><path d="M619.5712 447.104l84.5056-49.1008a3.584 3.584 0 0 0 0-6.1952l-85.0944-49.1264a3.584 3.584 0 0 0-3.584 0l-84.5056 49.1008a3.584 3.584 0 0 0 0 6.1952l85.0944 49.1264a3.584 3.584 0 0 0 3.584 0zM610.4576 460.416l-0.256 94.336a3.4304 3.4304 0 0 1-5.1712 2.9696l-82.1248-47.4112a3.3792 3.3792 0 0 1-1.7152-2.9952l0.256-94.336c0-2.6624 2.8928-4.3008 5.1712-2.9696l82.1248 47.4112a3.4304 3.4304 0 0 1 1.7152 2.9952z" fill="#1AC678" p-id="2243"></path><path d="M413.5424 460.416l0.256 94.336c0 2.6624 2.8928 4.3008 5.1712 2.9696l82.1248-47.4112a3.3792 3.3792 0 0 0 1.7152-2.9952l-0.256-94.336a3.4304 3.4304 0 0 0-5.1712-2.9696l-82.1248 47.4112a3.4304 3.4304 0 0 0-1.7152 2.9952z" fill="#008CFF" p-id="2244"></path><path d="M514.2016 625.6384l81.5616-47.4112a3.456 3.456 0 0 0 0-5.9648l-82.1248-47.4112a3.4816 3.4816 0 0 0-3.456 0l-81.5616 47.4112a3.456 3.456 0 0 0 0 5.9648l82.1248 47.4112a3.4816 3.4816 0 0 0 3.456 0z" fill="#008CFF" p-id="2245"></path></svg>